<mxfile host="app.diagrams.net" agent="Mozilla/5.0 (Windows NT 10.0; Win64; x64) AppleWebKit/537.36 (KHTML, like Gecko) Chrome/129.0.0.0 Safari/537.36" border="50" scale="3" compressed="false" locked="false" version="24.7.16">
  <diagram name="Blank" id="YmL12bMKpDGza6XwsDPr">
    <mxGraphModel dx="1050" dy="1322" grid="0" gridSize="10" guides="1" tooltips="1" connect="1" arrows="1" fold="1" page="0" pageScale="1" pageWidth="827" pageHeight="1169" background="none" math="1" shadow="0">
      <root>
        <mxCell id="X5NqExCQtvZxIxQ7pmgY-0" />
        <mxCell id="1" parent="X5NqExCQtvZxIxQ7pmgY-0" />
        <mxCell id="Gr0Zq-AI6Quabplr0KPa-179" value="&lt;font style=&quot;font-size: 12px;&quot;&gt;Mentor fejlődési folyamat&lt;/font&gt;" style="swimlane;html=1;startSize=20;horizontal=1;containerType=tree;labelBackgroundColor=none;strokeColor=#D4E1F5;strokeWidth=1;fillColor=none;fontFamily=Comic Sans MS;fontSize=9;swimlaneLine=0;dashed=1;collapsible=0;" parent="1" vertex="1">
          <mxGeometry x="124" y="-761" width="1503" height="1311" as="geometry" />
        </mxCell>
        <mxCell id="Gr0Zq-AI6Quabplr0KPa-223" style="jumpStyle=arc;html=1;endArrow=classicThin;endFill=1;jettySize=auto;orthogonalLoop=1;strokeColor=none;strokeWidth=2;fontFamily=Comic Sans MS;fontSize=10;rounded=0;startSize=8;endSize=8;curved=1;" parent="Gr0Zq-AI6Quabplr0KPa-179" edge="1">
          <mxGeometry relative="1" as="geometry">
            <mxPoint x="193" y="120.5" as="sourcePoint" />
            <mxPoint x="172.07554645979917" y="102.23865872855208" as="targetPoint" />
          </mxGeometry>
        </mxCell>
        <mxCell id="lAUVCbtll0n83pWjnTKP-1" value="Data Analyst" style="rounded=0;whiteSpace=wrap;html=1;" vertex="1" parent="Gr0Zq-AI6Quabplr0KPa-179">
          <mxGeometry x="39" y="38" width="120" height="60" as="geometry" />
        </mxCell>
        <mxCell id="lAUVCbtll0n83pWjnTKP-2" value="Szoftverfejlesztés" style="rounded=0;whiteSpace=wrap;html=1;" vertex="1" parent="Gr0Zq-AI6Quabplr0KPa-179">
          <mxGeometry x="196" y="38" width="120" height="60" as="geometry" />
        </mxCell>
        <mxCell id="lAUVCbtll0n83pWjnTKP-4" value="Cloud" style="rounded=0;whiteSpace=wrap;html=1;" vertex="1" parent="Gr0Zq-AI6Quabplr0KPa-179">
          <mxGeometry x="928" y="139" width="383" height="98" as="geometry" />
        </mxCell>
        <mxCell id="lAUVCbtll0n83pWjnTKP-6" value="Cloud alapozó (Kiss Tibor)" style="text;html=1;align=center;verticalAlign=middle;whiteSpace=wrap;rounded=0;fillColor=#d5e8d4;strokeColor=#82b366;" vertex="1" parent="Gr0Zq-AI6Quabplr0KPa-179">
          <mxGeometry x="1070" y="245" width="109" height="45" as="geometry" />
        </mxCell>
        <mxCell id="lAUVCbtll0n83pWjnTKP-7" value="&amp;nbsp;Felhőalapú adatbázisok (Szél Péter)" style="text;html=1;align=center;verticalAlign=middle;whiteSpace=wrap;rounded=0;fillColor=#d5e8d4;strokeColor=#82b366;" vertex="1" parent="Gr0Zq-AI6Quabplr0KPa-179">
          <mxGeometry x="1070" y="296" width="109" height="50" as="geometry" />
        </mxCell>
        <mxCell id="lAUVCbtll0n83pWjnTKP-13" value="Azure alapozó (Kiss Tibor)" style="text;html=1;align=center;verticalAlign=middle;whiteSpace=wrap;rounded=0;fillColor=#e1d5e7;strokeColor=#9673a6;" vertex="1" parent="Gr0Zq-AI6Quabplr0KPa-179">
          <mxGeometry x="1211" y="339" width="106" height="39" as="geometry" />
        </mxCell>
        <mxCell id="lAUVCbtll0n83pWjnTKP-14" value="AWS alapozó (Kiss Tibor)" style="text;html=1;align=center;verticalAlign=middle;whiteSpace=wrap;rounded=0;fillColor=#e1d5e7;strokeColor=#9673a6;" vertex="1" parent="Gr0Zq-AI6Quabplr0KPa-179">
          <mxGeometry x="931" y="339" width="106" height="39" as="geometry" />
        </mxCell>
        <mxCell id="lAUVCbtll0n83pWjnTKP-15" value="Azure haladó (Kiss Tibor)" style="text;html=1;align=center;verticalAlign=middle;whiteSpace=wrap;rounded=0;fillColor=#e1d5e7;strokeColor=#9673a6;" vertex="1" parent="Gr0Zq-AI6Quabplr0KPa-179">
          <mxGeometry x="1211" y="397" width="106" height="39" as="geometry" />
        </mxCell>
        <mxCell id="lAUVCbtll0n83pWjnTKP-16" value="AWS haladó (Kiss Tibor)" style="text;html=1;align=center;verticalAlign=middle;whiteSpace=wrap;rounded=0;fillColor=#e1d5e7;strokeColor=#9673a6;" vertex="1" parent="Gr0Zq-AI6Quabplr0KPa-179">
          <mxGeometry x="931" y="397" width="106" height="39" as="geometry" />
        </mxCell>
        <mxCell id="lAUVCbtll0n83pWjnTKP-17" value="Scrum master" style="text;html=1;align=center;verticalAlign=middle;whiteSpace=wrap;rounded=0;fillColor=#dae8fc;strokeColor=#6c8ebf;" vertex="1" parent="Gr0Zq-AI6Quabplr0KPa-179">
          <mxGeometry x="1070" y="440" width="106" height="39" as="geometry" />
        </mxCell>
        <mxCell id="lAUVCbtll0n83pWjnTKP-37" style="edgeStyle=orthogonalEdgeStyle;rounded=0;orthogonalLoop=1;jettySize=auto;html=1;exitX=0;exitY=0.5;exitDx=0;exitDy=0;entryX=1;entryY=0.75;entryDx=0;entryDy=0;strokeColor=none;" edge="1" parent="Gr0Zq-AI6Quabplr0KPa-179" source="lAUVCbtll0n83pWjnTKP-18" target="lAUVCbtll0n83pWjnTKP-31">
          <mxGeometry relative="1" as="geometry">
            <Array as="points">
              <mxPoint x="616" y="511" />
              <mxPoint x="616" y="523" />
              <mxPoint x="596" y="523" />
            </Array>
          </mxGeometry>
        </mxCell>
        <mxCell id="lAUVCbtll0n83pWjnTKP-18" value="Agilis módszertan" style="text;html=1;align=center;verticalAlign=middle;whiteSpace=wrap;rounded=0;fillColor=#dae8fc;strokeColor=#6c8ebf;" vertex="1" parent="Gr0Zq-AI6Quabplr0KPa-179">
          <mxGeometry x="1070" y="491" width="106" height="39" as="geometry" />
        </mxCell>
        <mxCell id="lAUVCbtll0n83pWjnTKP-19" value="DevOps alapok" style="text;html=1;align=center;verticalAlign=middle;whiteSpace=wrap;rounded=0;fillColor=#dae8fc;strokeColor=#6c8ebf;" vertex="1" parent="Gr0Zq-AI6Quabplr0KPa-179">
          <mxGeometry x="1068.5" y="545" width="106" height="39" as="geometry" />
        </mxCell>
        <mxCell id="lAUVCbtll0n83pWjnTKP-20" value="ITIL?" style="text;html=1;align=center;verticalAlign=middle;whiteSpace=wrap;rounded=0;fillColor=#ffe6cc;strokeColor=#d79b00;" vertex="1" parent="Gr0Zq-AI6Quabplr0KPa-179">
          <mxGeometry x="1068.5" y="594" width="106" height="39" as="geometry" />
        </mxCell>
        <mxCell id="lAUVCbtll0n83pWjnTKP-24" value="Data Analyst" style="rounded=0;whiteSpace=wrap;html=1;" vertex="1" parent="Gr0Zq-AI6Quabplr0KPa-179">
          <mxGeometry x="376" y="139" width="383" height="98" as="geometry" />
        </mxCell>
        <mxCell id="lAUVCbtll0n83pWjnTKP-25" value="Alapismeretek (Horváth Bálint)" style="text;html=1;align=center;verticalAlign=middle;whiteSpace=wrap;rounded=0;fillColor=#d5e8d4;strokeColor=#82b366;" vertex="1" parent="Gr0Zq-AI6Quabplr0KPa-179">
          <mxGeometry x="510" y="245" width="109" height="45" as="geometry" />
        </mxCell>
        <mxCell id="lAUVCbtll0n83pWjnTKP-26" value="&amp;nbsp;SQL lekérdezések 1 (Szél Péter)" style="text;html=1;align=center;verticalAlign=middle;whiteSpace=wrap;rounded=0;fillColor=#d5e8d4;strokeColor=#82b366;" vertex="1" parent="Gr0Zq-AI6Quabplr0KPa-179">
          <mxGeometry x="510" y="296" width="109" height="50" as="geometry" />
        </mxCell>
        <mxCell id="lAUVCbtll0n83pWjnTKP-27" value="Excell Dashboard" style="text;html=1;align=center;verticalAlign=middle;whiteSpace=wrap;rounded=0;fillColor=#e1d5e7;strokeColor=#9673a6;" vertex="1" parent="Gr0Zq-AI6Quabplr0KPa-179">
          <mxGeometry x="654" y="379" width="106" height="39" as="geometry" />
        </mxCell>
        <mxCell id="lAUVCbtll0n83pWjnTKP-28" value="BI eszközök" style="text;html=1;align=center;verticalAlign=middle;whiteSpace=wrap;rounded=0;fillColor=#e1d5e7;strokeColor=#9673a6;" vertex="1" parent="Gr0Zq-AI6Quabplr0KPa-179">
          <mxGeometry x="374" y="379" width="106" height="39" as="geometry" />
        </mxCell>
        <mxCell id="lAUVCbtll0n83pWjnTKP-29" value="" style="text;html=1;align=center;verticalAlign=middle;whiteSpace=wrap;rounded=0;fillColor=#e1d5e7;strokeColor=#9673a6;" vertex="1" parent="Gr0Zq-AI6Quabplr0KPa-179">
          <mxGeometry x="654" y="437" width="106" height="39" as="geometry" />
        </mxCell>
        <mxCell id="lAUVCbtll0n83pWjnTKP-30" value="" style="text;html=1;align=center;verticalAlign=middle;whiteSpace=wrap;rounded=0;fillColor=#e1d5e7;strokeColor=#9673a6;" vertex="1" parent="Gr0Zq-AI6Quabplr0KPa-179">
          <mxGeometry x="374" y="437" width="106" height="39" as="geometry" />
        </mxCell>
        <mxCell id="lAUVCbtll0n83pWjnTKP-31" value="Agilis módszertan" style="text;html=1;align=center;verticalAlign=middle;whiteSpace=wrap;rounded=0;fillColor=#dae8fc;strokeColor=default;" vertex="1" parent="Gr0Zq-AI6Quabplr0KPa-179">
          <mxGeometry x="510" y="491" width="106" height="39" as="geometry" />
        </mxCell>
        <mxCell id="lAUVCbtll0n83pWjnTKP-32" value="" style="text;html=1;align=center;verticalAlign=middle;whiteSpace=wrap;rounded=0;fillColor=#dae8fc;strokeColor=#6c8ebf;" vertex="1" parent="Gr0Zq-AI6Quabplr0KPa-179">
          <mxGeometry x="510" y="440" width="106" height="39" as="geometry" />
        </mxCell>
        <mxCell id="lAUVCbtll0n83pWjnTKP-33" value="" style="text;html=1;align=center;verticalAlign=middle;whiteSpace=wrap;rounded=0;fillColor=#dae8fc;strokeColor=#6c8ebf;" vertex="1" parent="Gr0Zq-AI6Quabplr0KPa-179">
          <mxGeometry x="510" y="545" width="106" height="39" as="geometry" />
        </mxCell>
        <mxCell id="lAUVCbtll0n83pWjnTKP-34" value="ITIL?" style="text;html=1;align=center;verticalAlign=middle;whiteSpace=wrap;rounded=0;fillColor=#ffe6cc;strokeColor=#d79b00;" vertex="1" parent="Gr0Zq-AI6Quabplr0KPa-179">
          <mxGeometry x="510" y="599" width="106" height="39" as="geometry" />
        </mxCell>
        <mxCell id="lAUVCbtll0n83pWjnTKP-38" value="" style="endArrow=classic;startArrow=classic;html=1;rounded=0;" edge="1" parent="Gr0Zq-AI6Quabplr0KPa-179">
          <mxGeometry width="50" height="50" relative="1" as="geometry">
            <mxPoint x="621" y="512" as="sourcePoint" />
            <mxPoint x="931" y="514" as="targetPoint" />
            <Array as="points" />
          </mxGeometry>
        </mxCell>
      </root>
    </mxGraphModel>
  </diagram>
</mxfile>
